<?xml version="1.0" encoding="UTF-8" standalone="no"?>
<!DOCTYPE svg PUBLIC "-//W3C//DTD SVG 1.1//EN"
 "http://www.w3.org/Graphics/SVG/1.1/DTD/svg11.dtd">
<!-- Generated by graphviz version 2.44.0 (0)
 -->
<!-- Title: g Pages: 1 -->
<svg width="2100pt" height="262pt"
 viewBox="0.00 0.00 2100.00 262.00" xmlns="http://www.w3.org/2000/svg" xmlns:xlink="http://www.w3.org/1999/xlink">
<g id="graph0" class="graph" transform="scale(1 1) rotate(0) translate(4 258)">
<title>g</title>
<polygon fill="white" stroke="transparent" points="-4,4 -4,-258 2096,-258 2096,4 -4,4"/>
<!-- n0 -->
<g id="node1" class="node">
<title>n0</title>
<polygon fill="none" stroke="black" points="8,-195 8,-216 104,-216 104,-195 8,-195"/>
<text text-anchor="start" x="41" y="-201.8" font-family="Times-Roman" font-size="14.00">_b:0</text>
<polygon fill="none" stroke="black" points="8,-174 8,-195 104,-195 104,-174 8,-174"/>
<text text-anchor="start" x="11" y="-180.8" font-family="Times-Roman" font-size="14.00">@value=null</text>
</g>
<!-- n4 -->
<g id="node5" class="node">
<title>n4</title>
<polygon fill="none" stroke="black" points="494,-229 494,-250 821,-250 821,-229 494,-229"/>
<text text-anchor="start" x="497" y="-235.8" font-family="Times-Roman" font-size="14.00">https://www.w3.org/2018/credentials/v1/name</text>
<polygon fill="none" stroke="black" points="494,-208 494,-229 821,-229 821,-208 494,-208"/>
<text text-anchor="start" x="511" y="-214.8" font-family="Times-Roman" font-size="14.00">@value=COVID&#45;19 Vaccination Certificate</text>
</g>
<!-- n0&#45;&gt;n4 -->
<g id="edge7" class="edge">
<title>n0&#45;&gt;n4</title>
<path fill="none" stroke="black" d="M112.01,-198.12C193.67,-202.76 350.71,-211.67 475.14,-218.73"/>
<polygon fill="black" stroke="black" points="475,-222.23 485.18,-219.3 475.39,-215.24 475,-222.23"/>
<text text-anchor="middle" x="278.5" y="-218.8" font-family="Times-Roman" font-size="14.00">https://lschema.org/data/object#attributes</text>
</g>
<!-- n5 -->
<g id="node6" class="node">
<title>n5</title>
<polygon fill="none" stroke="black" points="453,-161 453,-182 861,-182 861,-161 453,-161"/>
<text text-anchor="start" x="456" y="-167.8" font-family="Times-Roman" font-size="14.00">https://www.w3.org/2018/credentials/v1/credentialSubject</text>
<polygon fill="none" stroke="black" points="453,-140 453,-161 861,-161 861,-140 453,-140"/>
<text text-anchor="start" x="612" y="-146.8" font-family="Times-Roman" font-size="14.00">@value=null</text>
</g>
<!-- n0&#45;&gt;n5 -->
<g id="edge8" class="edge">
<title>n0&#45;&gt;n5</title>
<path fill="none" stroke="black" d="M112.24,-182.64C118.22,-181.61 124.22,-180.69 130,-180 229.58,-168.06 340.45,-162.86 434.63,-160.82"/>
<polygon fill="black" stroke="black" points="434.93,-164.32 444.86,-160.61 434.79,-157.32 434.93,-164.32"/>
<text text-anchor="middle" x="278.5" y="-183.8" font-family="Times-Roman" font-size="14.00">https://lschema.org/data/object#attributes</text>
</g>
<!-- n1 -->
<g id="node2" class="node">
<title>n1</title>
<polygon fill="none" stroke="black" points="1875,-229 1875,-250 2075,-250 2075,-229 1875,-229"/>
<text text-anchor="start" x="1878" y="-235.8" font-family="Times-Roman" font-size="14.00">http://schema.org/birthDate</text>
<polygon fill="none" stroke="black" points="1875,-208 1875,-229 2075,-229 2075,-208 1875,-208"/>
<text text-anchor="start" x="1901.5" y="-214.8" font-family="Times-Roman" font-size="14.00">@value=1971&#45;02&#45;13</text>
</g>
<!-- n2 -->
<g id="node3" class="node">
<title>n2</title>
<polygon fill="none" stroke="black" points="1210.5,-195 1210.5,-216 1517.5,-216 1517.5,-195 1210.5,-195"/>
<text text-anchor="start" x="1213.5" y="-201.8" font-family="Times-Roman" font-size="14.00">https://w3id.org/vaccination#batchNumber</text>
<polygon fill="none" stroke="black" points="1210.5,-174 1210.5,-195 1517.5,-195 1517.5,-174 1210.5,-174"/>
<text text-anchor="start" x="1299.5" y="-180.8" font-family="Times-Roman" font-size="14.00">@value=AZ45402</text>
</g>
<!-- n3 -->
<g id="node4" class="node">
<title>n3</title>
<polygon fill="none" stroke="black" points="1883,-161 1883,-182 2067,-182 2067,-161 1883,-161"/>
<text text-anchor="start" x="1886" y="-167.8" font-family="Times-Roman" font-size="14.00">http://schema.org/gender</text>
<polygon fill="none" stroke="black" points="1883,-140 1883,-161 2067,-161 2067,-140 1883,-140"/>
<text text-anchor="start" x="1926" y="-146.8" font-family="Times-Roman" font-size="14.00">@value=male</text>
</g>
<!-- n5&#45;&gt;n2 -->
<g id="edge5" class="edge">
<title>n5&#45;&gt;n2</title>
<path fill="none" stroke="black" d="M869.37,-171.2C972.42,-176.17 1094.73,-182.08 1191.76,-186.76"/>
<polygon fill="black" stroke="black" points="1191.8,-190.27 1201.96,-187.25 1192.14,-183.27 1191.8,-190.27"/>
<text text-anchor="middle" x="1035.5" y="-188.8" font-family="Times-Roman" font-size="14.00">https://lschema.org/data/object#attributes</text>
</g>
<!-- n7 -->
<g id="node8" class="node">
<title>n7</title>
<polygon fill="none" stroke="black" points="1227.5,-127 1227.5,-148 1499.5,-148 1499.5,-127 1227.5,-127"/>
<text text-anchor="start" x="1230.5" y="-133.8" font-family="Times-Roman" font-size="14.00">https://w3id.org/vaccination#recipient</text>
<polygon fill="none" stroke="black" points="1227.5,-106 1227.5,-127 1499.5,-127 1499.5,-106 1227.5,-106"/>
<text text-anchor="start" x="1318.5" y="-112.8" font-family="Times-Roman" font-size="14.00">@value=null</text>
</g>
<!-- n5&#45;&gt;n7 -->
<g id="edge6" class="edge">
<title>n5&#45;&gt;n7</title>
<path fill="none" stroke="black" d="M869.37,-150.8C978.7,-145.52 1109.7,-139.2 1209.19,-134.4"/>
<polygon fill="black" stroke="black" points="1209.51,-137.89 1219.33,-133.91 1209.17,-130.9 1209.51,-137.89"/>
<text text-anchor="middle" x="1035.5" y="-152.8" font-family="Times-Roman" font-size="14.00">https://lschema.org/data/object#attributes</text>
</g>
<!-- n6 -->
<g id="node7" class="node">
<title>n6</title>
<polygon fill="none" stroke="black" points="1868,-93 1868,-114 2082,-114 2082,-93 1868,-93"/>
<text text-anchor="start" x="1871" y="-99.8" font-family="Times-Roman" font-size="14.00">http://schema.org/givenName</text>
<polygon fill="none" stroke="black" points="1868,-72 1868,-93 2082,-93 2082,-72 1868,-72"/>
<text text-anchor="start" x="1920" y="-78.8" font-family="Times-Roman" font-size="14.00">@value=Cary b</text>
</g>
<!-- n7&#45;&gt;n1 -->
<g id="edge4" class="edge">
<title>n7&#45;&gt;n1</title>
<path fill="none" stroke="black" d="M1498.07,-152.08C1507.27,-154.79 1516.33,-157.76 1525,-161 1533.57,-164.21 1534.31,-168.12 1543,-171 1645.64,-205.06 1768.34,-219.16 1856.53,-224.98"/>
<polygon fill="black" stroke="black" points="1856.37,-228.48 1866.57,-225.62 1856.81,-221.49 1856.37,-228.48"/>
<text text-anchor="middle" x="1691.5" y="-226.8" font-family="Times-Roman" font-size="14.00">https://lschema.org/data/object#attributes</text>
</g>
<!-- n7&#45;&gt;n3 -->
<g id="edge3" class="edge">
<title>n7&#45;&gt;n3</title>
<path fill="none" stroke="black" d="M1507.79,-134.99C1616.99,-141.09 1765.1,-149.35 1864.83,-154.91"/>
<polygon fill="black" stroke="black" points="1864.75,-158.41 1874.93,-155.47 1865.14,-151.42 1864.75,-158.41"/>
<text text-anchor="middle" x="1691.5" y="-155.8" font-family="Times-Roman" font-size="14.00">https://lschema.org/data/object#attributes</text>
</g>
<!-- n7&#45;&gt;n6 -->
<g id="edge1" class="edge">
<title>n7&#45;&gt;n6</title>
<path fill="none" stroke="black" d="M1507.79,-119.01C1611.55,-113.22 1750.43,-105.47 1849.56,-99.94"/>
<polygon fill="black" stroke="black" points="1849.84,-103.43 1859.63,-99.38 1849.45,-96.44 1849.84,-103.43"/>
<text text-anchor="middle" x="1691.5" y="-119.8" font-family="Times-Roman" font-size="14.00">https://lschema.org/data/object#attributes</text>
</g>
<!-- n8 -->
<g id="node9" class="node">
<title>n8</title>
<polygon fill="none" stroke="black" points="1866,-25 1866,-46 2084,-46 2084,-25 1866,-25"/>
<text text-anchor="start" x="1869" y="-31.8" font-family="Times-Roman" font-size="14.00">http://schema.org/familyName</text>
<polygon fill="none" stroke="black" points="1866,-4 1866,-25 2084,-25 2084,-4 1866,-4"/>
<text text-anchor="start" x="1922.5" y="-10.8" font-family="Times-Roman" font-size="14.00">@value=Boyer</text>
</g>
<!-- n7&#45;&gt;n8 -->
<g id="edge2" class="edge">
<title>n7&#45;&gt;n8</title>
<path fill="none" stroke="black" d="M1455.31,-101.95C1483.29,-94.82 1514.28,-87.5 1543,-82 1644.79,-62.51 1761.39,-47.53 1847.62,-37.82"/>
<polygon fill="black" stroke="black" points="1848.16,-41.29 1857.71,-36.7 1847.39,-34.33 1848.16,-41.29"/>
<text text-anchor="middle" x="1691.5" y="-85.8" font-family="Times-Roman" font-size="14.00">https://lschema.org/data/object#attributes</text>
</g>
</g>
</svg>
