<?xml version="1.0" encoding="UTF-8" standalone="no"?>
<!DOCTYPE svg PUBLIC "-//W3C//DTD SVG 1.1//EN"
 "http://www.w3.org/Graphics/SVG/1.1/DTD/svg11.dtd">
<!-- Generated by graphviz version 2.44.0 (0)
 -->
<!-- Title: g Pages: 1 -->
<svg width="1111pt" height="188pt"
 viewBox="0.00 0.00 1111.00 188.00" xmlns="http://www.w3.org/2000/svg" xmlns:xlink="http://www.w3.org/1999/xlink">
<g id="graph0" class="graph" transform="scale(1 1) rotate(0) translate(4 184)">
<title>g</title>
<polygon fill="white" stroke="transparent" points="-4,4 -4,-184 1107,-184 1107,4 -4,4"/>
<!-- n0 -->
<g id="node1" class="node">
<title>n0</title>
<polygon fill="none" stroke="#333333" points="8.5,-137 8.5,-154 171.5,-154 171.5,-137 8.5,-137"/>
<text text-anchor="start" x="59.5" y="-143" font-family="Courier" font-size="10.00" fill="#333333">:ls:Schema</text>
<polygon fill="none" stroke="#333333" points="8.5,-92 8.5,-137 171.5,-137 171.5,-92 8.5,-92"/>
<text text-anchor="start" x="14.5" y="-123" font-family="Courier" font-size="10.00" fill="#333333">id=https://schema_id</text>
<text text-anchor="start" x="14.5" y="-112" font-family="Courier" font-size="10.00" fill="#333333">ls:valueType=ObjectType</text>
<text text-anchor="start" x="14.5" y="-101" font-family="Courier" font-size="10.00" fill="#333333">ls:entityIdFields=idField</text>
</g>
<!-- n1 -->
<g id="node2" class="node">
<title>n1</title>
<polygon fill="none" stroke="#333333" points="272.5,-126 272.5,-143 483.5,-143 483.5,-126 272.5,-126"/>
<text text-anchor="start" x="275.5" y="-132" font-family="Courier" font-size="10.00" fill="#333333">:ls:Attribute:ls:Object:ObjectType</text>
<polygon fill="none" stroke="#333333" points="272.5,-103 272.5,-126 483.5,-126 483.5,-103 272.5,-103"/>
<text text-anchor="start" x="308.5" y="-112" font-family="Courier" font-size="10.00" fill="#333333">ls:valueType=ObjectType</text>
</g>
<!-- n0&#45;&gt;n1 -->
<g id="edge1" class="edge">
<title>n0&#45;&gt;n1</title>
<path fill="none" stroke="#333333" d="M179.03,-123C202.61,-123 228.5,-123 253.56,-123"/>
<polygon fill="#333333" stroke="#333333" points="253.86,-126.5 263.86,-123 253.86,-119.5 253.86,-126.5"/>
<text text-anchor="middle" x="221.5" y="-126" font-family="Courier" font-size="10.00" fill="#333333">ls:layer</text>
</g>
<!-- n2 -->
<g id="node3" class="node">
<title>n2</title>
<polygon fill="none" stroke="#333333" points="623.5,-159 623.5,-176 762.5,-176 762.5,-159 623.5,-159"/>
<text text-anchor="start" x="626.5" y="-165" font-family="Courier" font-size="10.00" fill="#333333">:ls:Attribute:ls:Value</text>
<polygon fill="none" stroke="#333333" points="623.5,-136 623.5,-159 762.5,-159 762.5,-136 623.5,-136"/>
<text text-anchor="start" x="635.5" y="-145" font-family="Courier" font-size="10.00" fill="#333333">ls:attributeName=id</text>
</g>
<!-- n1&#45;&gt;n2 -->
<g id="edge2" class="edge">
<title>n1&#45;&gt;n2</title>
<path fill="none" stroke="#333333" d="M491.06,-134.87C528.38,-138.8 569.34,-143.12 604.45,-146.82"/>
<polygon fill="#333333" stroke="#333333" points="604.35,-150.33 614.66,-147.9 605.09,-143.37 604.35,-150.33"/>
<text text-anchor="middle" x="548.5" y="-147" font-family="Courier" font-size="10.00" fill="#333333">ls:attributes</text>
</g>
<!-- n3 -->
<g id="node4" class="node">
<title>n3</title>
<polygon fill="none" stroke="#333333" points="614.5,-93 614.5,-110 771.5,-110 771.5,-93 614.5,-93"/>
<text text-anchor="start" x="623.5" y="-99" font-family="Courier" font-size="10.00" fill="#333333">:ls:Attribute:ls:Object</text>
<polygon fill="none" stroke="#333333" points="614.5,-70 614.5,-93 771.5,-93 771.5,-70 614.5,-70"/>
<text text-anchor="start" x="620.5" y="-79" font-family="Courier" font-size="10.00" fill="#333333">ls:attributeName=address</text>
</g>
<!-- n1&#45;&gt;n3 -->
<g id="edge3" class="edge">
<title>n1&#45;&gt;n3</title>
<path fill="none" stroke="#333333" d="M491.06,-111.13C525.37,-107.52 562.74,-103.58 595.82,-100.09"/>
<polygon fill="#333333" stroke="#333333" points="596.36,-103.55 605.94,-99.02 595.63,-96.59 596.36,-103.55"/>
<text text-anchor="middle" x="548.5" y="-111" font-family="Courier" font-size="10.00" fill="#333333">ls:attributes</text>
</g>
<!-- n4 -->
<g id="node5" class="node">
<title>n4</title>
<polygon fill="none" stroke="#333333" points="932.5,-159 932.5,-176 1083.5,-176 1083.5,-159 932.5,-159"/>
<text text-anchor="start" x="941.5" y="-165" font-family="Courier" font-size="10.00" fill="#333333">:ls:Attribute:ls:Value</text>
<polygon fill="none" stroke="#333333" points="932.5,-136 932.5,-159 1083.5,-159 1083.5,-136 932.5,-136"/>
<text text-anchor="start" x="938.5" y="-145" font-family="Courier" font-size="10.00" fill="#333333">ls:attributeName=street</text>
</g>
<!-- n3&#45;&gt;n4 -->
<g id="edge4" class="edge">
<title>n3&#45;&gt;n4</title>
<path fill="none" stroke="#333333" d="M779.03,-108.03C820.84,-116.85 871.23,-127.48 913.94,-136.48"/>
<polygon fill="#333333" stroke="#333333" points="913.27,-139.92 923.78,-138.56 914.71,-133.07 913.27,-139.92"/>
<text text-anchor="middle" x="845.5" y="-133" font-family="Courier" font-size="10.00" fill="#333333">ls:attributeList</text>
</g>
<!-- n5 -->
<g id="node6" class="node">
<title>n5</title>
<polygon fill="none" stroke="#333333" points="935.5,-93 935.5,-110 1080.5,-110 1080.5,-93 935.5,-93"/>
<text text-anchor="start" x="941.5" y="-99" font-family="Courier" font-size="10.00" fill="#333333">:ls:Attribute:ls:Value</text>
<polygon fill="none" stroke="#333333" points="935.5,-70 935.5,-93 1080.5,-93 1080.5,-70 935.5,-70"/>
<text text-anchor="start" x="941.5" y="-79" font-family="Courier" font-size="10.00" fill="#333333">ls:attributeName=state</text>
</g>
<!-- n3&#45;&gt;n5 -->
<g id="edge5" class="edge">
<title>n3&#45;&gt;n5</title>
<path fill="none" stroke="#333333" d="M779.03,-90C821.76,-90 873.44,-90 916.74,-90"/>
<polygon fill="#333333" stroke="#333333" points="916.99,-93.5 926.99,-90 916.99,-86.5 916.99,-93.5"/>
<text text-anchor="middle" x="845.5" y="-93" font-family="Courier" font-size="10.00" fill="#333333">ls:attributeList</text>
</g>
<!-- n6 -->
<g id="node7" class="node">
<title>n6</title>
<polygon fill="none" stroke="#333333" points="920.5,-27 920.5,-44 1095.5,-44 1095.5,-27 920.5,-27"/>
<text text-anchor="start" x="941.5" y="-33" font-family="Courier" font-size="10.00" fill="#333333">:ls:Attribute:ls:Value</text>
<polygon fill="none" stroke="#333333" points="920.5,-4 920.5,-27 1095.5,-27 1095.5,-4 920.5,-4"/>
<text text-anchor="start" x="926.5" y="-13" font-family="Courier" font-size="10.00" fill="#333333">ls:attributeName=postalCode</text>
</g>
<!-- n3&#45;&gt;n6 -->
<g id="edge6" class="edge">
<title>n3&#45;&gt;n6</title>
<path fill="none" stroke="#333333" d="M779.03,-71.97C816.99,-63.96 862.02,-54.47 901.96,-46.04"/>
<polygon fill="#333333" stroke="#333333" points="902.93,-49.42 911.99,-43.93 901.49,-42.57 902.93,-49.42"/>
<text text-anchor="middle" x="845.5" y="-69" font-family="Courier" font-size="10.00" fill="#333333">ls:attributeList</text>
</g>
</g>
</svg>
